<?xml version="1.0" encoding="UTF-8"?>
<svg xmlns="http://www.w3.org/2000/svg" xmlns:xlink="http://www.w3.org/1999/xlink" width="48px" height="48px" viewBox="0 0 48 48" version="1.1">
<g id="surface1">
<path style=" stroke:none;fill-rule:nonzero;fill:rgb(0%,0%,0%);fill-opacity:1;" d="M 44.375 45.046875 C 43.929688 44.933594 43.679688 44.824219 43.328125 44.59375 C 42.582031 44.101562 41.996094 43.378906 40.992188 41.6875 C 40.527344 40.90625 39.984375 40.078125 39.875 39.992188 C 39.832031 39.957031 39.757812 39.9375 39.710938 39.945312 C 39.632812 39.960938 39.625 40.027344 39.609375 40.464844 C 39.585938 41.378906 39.585938 41.492188 39.625 41.945312 L 39.664062 42.398438 L 39.882812 42.488281 C 40.492188 42.75 40.699219 42.867188 40.910156 43.070312 C 41.164062 43.316406 41.179688 43.386719 41.054688 43.78125 C 40.902344 44.273438 40.734375 44.34375 39.585938 44.371094 C 39.105469 44.386719 38.574219 44.417969 38.398438 44.449219 C 37.882812 44.535156 36.210938 44.558594 35.957031 44.488281 C 35.679688 44.40625 35.46875 44.1875 35.386719 43.910156 C 35.328125 43.722656 35.332031 43.671875 35.390625 43.554688 C 35.636719 43.085938 35.929688 42.863281 36.390625 42.796875 C 36.628906 42.761719 36.699219 42.699219 36.84375 42.433594 C 36.921875 42.292969 36.941406 42.105469 36.96875 41.28125 C 37.003906 40.261719 37.023438 39.980469 37.105469 39.230469 C 37.167969 38.664062 37.167969 37.953125 37.105469 37.546875 C 37.078125 37.367188 37.046875 37.105469 37.035156 36.960938 C 37.003906 36.511719 36.949219 36.195312 36.894531 36.148438 C 36.863281 36.128906 36.691406 36.082031 36.503906 36.046875 C 36.320312 36.015625 36.089844 35.941406 36 35.894531 C 35.699219 35.726562 35.328125 35.230469 35.328125 34.992188 C 35.328125 34.871094 35.4375 34.644531 35.601562 34.433594 C 35.710938 34.285156 36.105469 34.125 36.175781 34.195312 C 36.191406 34.210938 36.296875 34.171875 36.40625 34.105469 C 36.519531 34.042969 36.734375 33.941406 36.882812 33.882812 C 37.171875 33.777344 37.199219 33.777344 38.160156 33.882812 C 38.519531 33.921875 38.6875 33.917969 38.953125 33.859375 C 39.457031 33.757812 39.925781 33.777344 40.726562 33.941406 C 42.105469 34.21875 42.894531 34.789062 43.210938 35.742188 C 43.363281 36.214844 43.363281 36.992188 43.199219 37.441406 C 43.070312 37.804688 42.945312 38.011719 42.699219 38.28125 C 42.605469 38.386719 42.457031 38.566406 42.375 38.679688 C 42.238281 38.875 42.234375 38.898438 42.292969 39.015625 C 42.414062 39.246094 43.019531 40.242188 43.203125 40.523438 C 43.308594 40.671875 43.390625 40.808594 43.390625 40.824219 C 43.390625 40.839844 43.503906 40.992188 43.632812 41.160156 C 43.765625 41.328125 43.871094 41.488281 43.871094 41.511719 C 43.871094 41.558594 44.6875 42.339844 45.128906 42.714844 C 45.480469 43.011719 45.984375 43.296875 46.167969 43.296875 C 46.492188 43.300781 46.671875 43.628906 46.578125 44.0625 C 46.507812 44.410156 46.453125 44.511719 46.261719 44.644531 C 46.175781 44.707031 46.09375 44.769531 46.078125 44.785156 C 46 44.871094 45.863281 44.941406 45.636719 45.027344 C 45.339844 45.132812 44.753906 45.144531 44.375 45.046875 Z M 45.550781 44.578125 C 45.644531 44.535156 45.8125 44.414062 45.921875 44.3125 C 46.085938 44.175781 46.132812 44.09375 46.15625 43.933594 C 46.1875 43.734375 46.1875 43.726562 46.0625 43.726562 C 45.488281 43.726562 44.007812 42.511719 43.277344 41.449219 C 42.484375 40.296875 41.761719 39.066406 41.761719 38.875 C 41.761719 38.734375 42.023438 38.328125 42.351562 37.96875 C 43.296875 36.929688 42.988281 35.371094 41.71875 34.734375 C 40.976562 34.359375 39.730469 34.171875 38.9375 34.316406 C 38.6875 34.363281 38.503906 34.363281 38.113281 34.320312 C 37.265625 34.222656 37.15625 34.238281 36.738281 34.460938 C 36.480469 34.597656 36.316406 34.65625 36.175781 34.65625 C 35.996094 34.65625 35.964844 34.675781 35.875 34.839844 L 35.769531 35.015625 L 35.960938 35.246094 C 36.175781 35.503906 36.335938 35.585938 36.714844 35.636719 C 37.328125 35.71875 37.402344 35.855469 37.515625 37.214844 C 37.59375 38.089844 37.59375 38.335938 37.546875 39.230469 C 37.511719 39.792969 37.46875 40.324219 37.441406 40.414062 C 37.414062 40.507812 37.390625 40.953125 37.390625 41.40625 C 37.390625 42.308594 37.347656 42.527344 37.09375 42.898438 C 36.929688 43.136719 36.867188 43.175781 36.5625 43.214844 C 36.265625 43.257812 36.082031 43.355469 35.921875 43.566406 C 35.796875 43.726562 35.792969 43.746094 35.859375 43.863281 C 35.984375 44.089844 36.109375 44.121094 36.769531 44.089844 C 37.097656 44.070312 37.386719 44.035156 37.414062 44.011719 C 37.472656 43.953125 37.679688 43.953125 37.679688 44.011719 C 37.679688 44.097656 37.828125 44.105469 38.144531 44.035156 C 38.335938 43.992188 38.851562 43.953125 39.382812 43.9375 C 39.886719 43.925781 40.359375 43.890625 40.433594 43.863281 C 40.574219 43.804688 40.746094 43.503906 40.671875 43.445312 C 40.644531 43.429688 40.550781 43.359375 40.460938 43.285156 C 40.367188 43.21875 40.09375 43.074219 39.84375 42.964844 C 39.59375 42.859375 39.363281 42.742188 39.332031 42.710938 C 39.222656 42.59375 39.121094 41.449219 39.148438 40.621094 C 39.164062 40.203125 39.195312 39.804688 39.226562 39.734375 C 39.28125 39.585938 39.488281 39.503906 39.835938 39.503906 C 40.011719 39.503906 40.070312 39.527344 40.199219 39.667969 C 40.398438 39.878906 40.964844 40.726562 41.472656 41.59375 C 42.632812 43.550781 43.398438 44.328125 44.449219 44.617188 C 44.785156 44.707031 45.328125 44.6875 45.550781 44.578125 Z M 45.550781 44.578125 "/>
<path style=" stroke:none;fill-rule:nonzero;fill:rgb(0%,0%,0%);fill-opacity:1;" d="M 39.175781 38.796875 C 38.859375 38.644531 38.710938 38.273438 38.753906 37.753906 C 38.773438 37.566406 38.792969 37.148438 38.796875 36.816406 C 38.816406 36.140625 38.894531 35.832031 39.121094 35.558594 C 39.328125 35.308594 39.558594 35.210938 39.875 35.25 C 40.40625 35.3125 40.765625 35.566406 41.015625 36.054688 C 41.417969 36.839844 41.488281 37.398438 41.238281 37.890625 C 41.089844 38.195312 40.679688 38.558594 40.273438 38.765625 C 39.988281 38.910156 39.433594 38.921875 39.175781 38.796875 Z M 40.046875 38.371094 C 40.390625 38.195312 40.746094 37.871094 40.847656 37.644531 C 41.011719 37.273438 40.96875 37 40.640625 36.332031 C 40.527344 36.089844 40.433594 35.976562 40.273438 35.871094 C 39.859375 35.585938 39.550781 35.644531 39.363281 36.039062 C 39.273438 36.226562 39.257812 36.320312 39.269531 36.859375 C 39.273438 37.238281 39.253906 37.507812 39.222656 37.570312 C 39.097656 37.804688 39.195312 38.28125 39.394531 38.394531 C 39.523438 38.472656 39.875 38.457031 40.046875 38.371094 Z M 40.046875 38.371094 "/>
<path style=" stroke:none;fill-rule:nonzero;fill:rgb(0%,0%,0%);fill-opacity:1;" d="M 2.710938 44.765625 C 2.519531 44.683594 2.433594 44.539062 2.363281 44.179688 C 2.320312 43.964844 2.320312 43.847656 2.351562 43.746094 C 2.378906 43.671875 2.617188 43.40625 2.875 43.152344 L 3.34375 42.695312 L 3.390625 42.335938 C 3.414062 42.140625 3.421875 41.5 3.414062 40.921875 C 3.390625 39.246094 3.394531 37.96875 3.433594 36.949219 L 3.464844 36.007812 L 3.25 35.796875 C 3.023438 35.578125 2.816406 35.472656 2.429688 35.378906 C 2.300781 35.351562 2.136719 35.285156 2.0625 35.230469 C 1.921875 35.125 1.765625 34.84375 1.765625 34.679688 C 1.765625 34.496094 1.925781 34.230469 2.164062 34.011719 C 2.601562 33.625 2.578125 33.625 4.175781 33.609375 C 5.121094 33.601562 5.65625 33.609375 5.773438 33.648438 C 5.910156 33.6875 6 33.6875 6.121094 33.648438 C 6.238281 33.609375 6.398438 33.609375 6.777344 33.664062 C 7.316406 33.738281 7.597656 33.832031 7.90625 34.035156 C 8.011719 34.109375 8.183594 34.195312 8.285156 34.230469 C 8.386719 34.265625 8.585938 34.40625 8.730469 34.539062 C 8.878906 34.675781 9.125 34.890625 9.277344 35.019531 C 9.523438 35.226562 9.582031 35.308594 9.726562 35.664062 C 9.902344 36.097656 9.925781 36.335938 9.835938 36.777344 C 9.8125 36.917969 9.769531 37.128906 9.742188 37.246094 C 9.570312 38.144531 9.613281 38.050781 9.207031 38.457031 C 8.832031 38.832031 8.792969 38.878906 8.875 38.878906 C 8.898438 38.878906 9.132812 39 9.394531 39.148438 C 10.117188 39.566406 10.304688 39.777344 10.378906 40.273438 C 10.449219 40.785156 10.492188 40.96875 10.574219 41.132812 C 10.675781 41.332031 10.683594 41.933594 10.589844 42.238281 C 10.398438 42.859375 10.199219 43.179688 9.632812 43.785156 C 9.480469 43.953125 9.046875 44.152344 8.640625 44.242188 C 8.574219 44.257812 8.433594 44.328125 8.328125 44.398438 C 8.019531 44.605469 7.859375 44.65625 7.574219 44.621094 C 7.433594 44.601562 7.257812 44.59375 7.175781 44.597656 C 7.097656 44.601562 6.277344 44.605469 5.351562 44.609375 C 3.71875 44.617188 3.667969 44.621094 3.457031 44.722656 C 3.210938 44.839844 2.929688 44.859375 2.710938 44.765625 Z M 3.457031 44.261719 C 3.707031 44.164062 3.8125 44.160156 5.257812 44.167969 C 6.101562 44.167969 6.945312 44.15625 7.132812 44.136719 C 7.371094 44.113281 7.484375 44.117188 7.507812 44.15625 C 7.570312 44.25 7.742188 44.207031 8.070312 44.015625 C 8.246094 43.910156 8.417969 43.824219 8.457031 43.824219 C 8.492188 43.824219 8.667969 43.769531 8.851562 43.707031 C 9.148438 43.601562 9.214844 43.550781 9.507812 43.222656 C 9.988281 42.695312 10.175781 42.292969 10.199219 41.742188 C 10.214844 41.5 10.191406 41.355469 10.125 41.199219 C 10.074219 41.078125 10.03125 40.921875 10.03125 40.847656 C 10.03125 40.769531 10.007812 40.695312 9.984375 40.679688 C 9.960938 40.664062 9.9375 40.550781 9.9375 40.429688 C 9.9375 40.023438 9.726562 39.832031 8.734375 39.320312 C 8.386719 39.144531 8.179688 39.007812 8.167969 38.953125 C 8.15625 38.894531 8.324219 38.691406 8.679688 38.332031 L 9.210938 37.800781 L 9.46875 36.253906 L 9.332031 35.902344 C 9.207031 35.582031 9.164062 35.53125 8.722656 35.140625 C 8.457031 34.914062 8.222656 34.714844 8.1875 34.695312 C 8.089844 34.636719 7.65625 34.414062 7.34375 34.257812 C 7.042969 34.109375 7.007812 34.105469 6.335938 34.089844 C 4.558594 34.046875 3.082031 34.046875 2.910156 34.089844 C 2.71875 34.136719 2.207031 34.566406 2.207031 34.679688 C 2.207031 34.789062 2.429688 34.933594 2.679688 34.988281 C 3.207031 35.097656 3.675781 35.453125 3.84375 35.859375 C 3.957031 36.128906 3.957031 36.453125 3.859375 37.644531 C 3.792969 38.523438 3.792969 39.5625 3.863281 40.03125 C 3.960938 40.683594 3.9375 41.597656 3.78125 42.613281 C 3.726562 43.023438 3.761719 42.964844 3.070312 43.597656 C 2.777344 43.863281 2.773438 43.875 2.796875 44.070312 C 2.847656 44.433594 2.933594 44.457031 3.457031 44.261719 Z M 3.457031 44.261719 "/>
<path style=" stroke:none;fill-rule:nonzero;fill:rgb(0%,0%,0%);fill-opacity:1;" d="M 5.6875 42.8125 C 5.5 42.671875 5.324219 42.527344 5.292969 42.484375 C 5.226562 42.398438 5.242188 41.703125 5.328125 41.113281 C 5.351562 40.929688 5.386719 40.585938 5.394531 40.34375 C 5.429688 39.804688 5.496094 39.542969 5.644531 39.402344 C 5.753906 39.296875 5.773438 39.296875 6.109375 39.355469 C 6.296875 39.390625 6.605469 39.4375 6.78125 39.460938 C 7.140625 39.507812 7.386719 39.644531 7.511719 39.847656 C 7.550781 39.921875 7.726562 40.105469 7.894531 40.253906 C 8.25 40.570312 8.308594 40.691406 8.429688 41.378906 L 8.511719 41.886719 L 8.394531 42.167969 C 8.332031 42.328125 8.199219 42.539062 8.101562 42.636719 C 7.933594 42.816406 7.914062 42.824219 7.742188 42.789062 C 7.429688 42.71875 7.1875 42.742188 6.855469 42.875 C 6.679688 42.945312 6.476562 43.003906 6.398438 43.003906 C 6.328125 43.003906 6.210938 43.011719 6.144531 43.03125 C 6.046875 43.054688 5.957031 43.011719 5.6875 42.8125 Z M 6.75 42.4375 C 6.945312 42.34375 7.257812 42.273438 7.414062 42.28125 C 7.824219 42.316406 7.789062 42.332031 7.933594 42.054688 C 8.058594 41.808594 8.0625 41.769531 8.015625 41.546875 C 7.847656 40.757812 7.863281 40.796875 7.683594 40.679688 C 7.589844 40.621094 7.429688 40.476562 7.328125 40.363281 C 6.980469 39.960938 6.949219 39.9375 6.84375 39.929688 C 6.605469 39.917969 6.441406 39.894531 6.203125 39.835938 C 5.871094 39.753906 5.855469 39.773438 5.855469 40.425781 C 5.855469 40.707031 5.835938 40.949219 5.816406 40.964844 C 5.792969 40.976562 5.773438 41.078125 5.769531 41.195312 C 5.765625 41.308594 5.742188 41.460938 5.710938 41.542969 C 5.6875 41.621094 5.671875 41.816406 5.683594 41.972656 C 5.699219 42.238281 5.707031 42.265625 5.886719 42.390625 C 6.113281 42.558594 6.460938 42.574219 6.75 42.4375 Z M 6.75 42.4375 "/>
<path style=" stroke:none;fill-rule:nonzero;fill:rgb(0%,0%,0%);fill-opacity:1;" d="M 5.726562 38.640625 C 5.667969 38.617188 5.59375 38.546875 5.554688 38.488281 C 5.472656 38.355469 5.308594 37.574219 5.320312 37.367188 C 5.320312 37.292969 5.332031 36.921875 5.34375 36.550781 C 5.367188 35.582031 5.425781 35.492188 6.085938 35.332031 C 6.464844 35.238281 6.542969 35.230469 6.621094 35.285156 C 7.515625 35.929688 7.574219 35.992188 7.703125 36.503906 C 7.746094 36.691406 7.8125 36.910156 7.851562 37.003906 C 7.988281 37.320312 7.96875 37.371094 7.460938 38.097656 C 7.253906 38.386719 7.1875 38.433594 6.816406 38.574219 C 6.570312 38.664062 5.886719 38.707031 5.726562 38.640625 Z M 6.507812 38.183594 C 6.558594 38.144531 6.636719 38.113281 6.679688 38.113281 C 6.800781 38.113281 7.007812 38.007812 7.007812 37.953125 C 7.007812 37.925781 7.109375 37.777344 7.230469 37.621094 C 7.464844 37.320312 7.46875 37.277344 7.34375 36.839844 C 7.320312 36.761719 7.277344 36.605469 7.242188 36.496094 C 7.179688 36.269531 7.117188 36.203125 6.691406 35.910156 L 6.398438 35.710938 L 6.152344 35.773438 C 5.828125 35.855469 5.730469 35.980469 5.808594 36.214844 C 5.851562 36.339844 5.851562 36.46875 5.804688 36.738281 C 5.773438 36.9375 5.761719 37.222656 5.773438 37.378906 C 5.816406 37.785156 5.878906 38.125 5.917969 38.199219 C 5.972656 38.28125 6.394531 38.269531 6.507812 38.183594 Z M 6.507812 38.183594 "/>
<path style=" stroke:none;fill-rule:nonzero;fill:rgb(0%,0%,0%);fill-opacity:1;" d="M 15.820312 44.699219 C 15.804688 44.6875 15.730469 44.664062 15.636719 44.640625 C 15.417969 44.585938 14.957031 44.414062 14.648438 44.273438 C 14.511719 44.210938 14.347656 44.160156 14.289062 44.160156 C 14.226562 44.160156 14.136719 44.121094 14.082031 44.078125 C 14.035156 44.03125 13.914062 43.933594 13.820312 43.863281 C 13.726562 43.796875 13.566406 43.617188 13.464844 43.46875 C 13.363281 43.320312 13.265625 43.199219 13.246094 43.199219 C 13.203125 43.199219 12.804688 42.601562 12.707031 42.382812 C 12.425781 41.769531 12.28125 40.859375 12.339844 40.078125 C 12.402344 39.238281 12.394531 38.816406 12.292969 38.5625 C 12.046875 37.921875 12.042969 37.753906 12.238281 37.246094 C 12.421875 36.789062 12.421875 36.75 12.230469 35.761719 C 12.148438 35.3125 12.109375 35.257812 11.855469 35.140625 C 11.722656 35.078125 11.554688 34.953125 11.472656 34.859375 C 11.351562 34.707031 11.328125 34.640625 11.328125 34.414062 C 11.328125 33.960938 11.65625 33.566406 12.125 33.457031 C 12.378906 33.394531 12.398438 33.394531 12.664062 33.523438 C 13.242188 33.8125 13.832031 33.867188 14.394531 33.691406 C 14.953125 33.519531 15.003906 33.503906 15.160156 33.503906 C 15.589844 33.503906 16.050781 33.824219 16.167969 34.203125 C 16.214844 34.371094 16.210938 34.441406 16.152344 34.613281 C 16.046875 34.90625 15.9375 35.007812 15.480469 35.207031 L 15.085938 35.386719 L 15.035156 35.628906 C 14.953125 36.015625 14.933594 36.667969 14.976562 37.558594 C 15.125 40.503906 15.132812 40.652344 15.273438 41.183594 C 15.3125 41.328125 15.375 41.574219 15.40625 41.726562 C 15.460938 41.960938 15.519531 42.054688 15.761719 42.308594 C 16.191406 42.753906 16.34375 42.816406 16.976562 42.816406 C 17.792969 42.8125 18.464844 42.664062 18.804688 42.398438 C 19.003906 42.25 19.246094 41.742188 19.339844 41.304688 C 19.539062 40.355469 19.734375 39.695312 19.953125 39.226562 C 20.0625 38.996094 20.074219 38.9375 20.042969 38.53125 C 20.03125 38.289062 20.007812 37.578125 19.988281 36.960938 L 19.957031 35.832031 L 19.808594 35.679688 C 19.617188 35.472656 19.296875 35.328125 19.035156 35.328125 C 18.777344 35.328125 18.398438 35.167969 18.269531 35.015625 C 18.101562 34.804688 18.039062 34.558594 18.101562 34.34375 C 18.210938 33.945312 18.246094 33.898438 18.445312 33.800781 C 18.753906 33.664062 19.007812 33.636719 19.425781 33.71875 C 19.933594 33.816406 21.433594 33.816406 21.957031 33.71875 C 22.464844 33.625 22.589844 33.664062 22.789062 33.957031 C 23.042969 34.335938 23 34.488281 22.507812 34.921875 C 22.070312 35.300781 21.992188 35.453125 21.929688 36.058594 C 21.90625 36.332031 21.859375 36.667969 21.832031 36.804688 C 21.789062 37 21.792969 37.085938 21.835938 37.191406 C 21.921875 37.371094 21.910156 38.957031 21.820312 39.46875 C 21.78125 39.6875 21.753906 39.90625 21.75 39.960938 C 21.726562 40.46875 21.65625 41.179688 21.628906 41.257812 C 21.546875 41.472656 21.296875 41.953125 21.265625 41.953125 C 21.246094 41.953125 21.203125 42.039062 21.167969 42.148438 C 21.128906 42.253906 21.046875 42.390625 20.980469 42.445312 C 20.914062 42.503906 20.792969 42.644531 20.722656 42.753906 C 20.644531 42.863281 20.53125 42.992188 20.46875 43.042969 C 20.40625 43.089844 20.351562 43.148438 20.351562 43.175781 C 20.347656 43.292969 19.691406 43.871094 19.566406 43.871094 C 19.550781 43.871094 19.40625 44 19.242188 44.160156 C 19.035156 44.367188 18.917969 44.449219 18.824219 44.449219 C 18.753906 44.449219 18.574219 44.480469 18.433594 44.523438 C 18.289062 44.566406 17.953125 44.625 17.6875 44.648438 C 17.203125 44.703125 15.859375 44.734375 15.820312 44.699219 Z M 17.375 44.230469 C 17.761719 44.195312 18.125 44.140625 18.191406 44.117188 C 18.257812 44.09375 18.40625 44.058594 18.523438 44.050781 C 18.695312 44.027344 18.777344 43.976562 18.980469 43.785156 C 19.113281 43.65625 19.359375 43.460938 19.527344 43.347656 C 19.691406 43.238281 19.863281 43.089844 19.90625 43.019531 C 19.949219 42.945312 20.078125 42.789062 20.195312 42.664062 C 20.308594 42.539062 20.425781 42.382812 20.453125 42.316406 C 20.480469 42.253906 20.558594 42.175781 20.621094 42.148438 C 20.683594 42.125 20.746094 42.039062 20.765625 41.964844 C 20.785156 41.894531 20.835938 41.773438 20.890625 41.703125 C 20.9375 41.628906 21.042969 41.4375 21.121094 41.269531 C 21.253906 40.980469 21.265625 40.933594 21.269531 40.304688 C 21.269531 39.945312 21.289062 39.636719 21.3125 39.625 C 21.375 39.585938 21.40625 39.300781 21.4375 38.640625 C 21.464844 37.945312 21.464844 38.039062 21.421875 37.585938 C 21.375 37.046875 21.382812 36.855469 21.46875 36.132812 C 21.5625 35.398438 21.757812 34.800781 21.90625 34.800781 C 21.949219 34.800781 22.429688 34.371094 22.460938 34.304688 C 22.464844 34.285156 22.441406 34.230469 22.398438 34.179688 C 22.324219 34.105469 22.292969 34.097656 21.992188 34.15625 C 21.542969 34.246094 19.84375 34.242188 19.378906 34.15625 C 19.046875 34.089844 18.777344 34.105469 18.632812 34.195312 C 18.550781 34.242188 18.511719 34.539062 18.570312 34.652344 C 18.644531 34.78125 18.917969 34.894531 19.15625 34.894531 C 19.429688 34.894531 19.832031 35.0625 20.082031 35.285156 C 20.398438 35.5625 20.46875 35.710938 20.429688 36.066406 C 20.414062 36.230469 20.429688 36.988281 20.457031 37.753906 L 20.511719 39.144531 L 20.367188 39.433594 C 20.164062 39.832031 19.996094 40.371094 19.828125 41.136719 C 19.59375 42.226562 19.386719 42.625 18.921875 42.878906 C 18.488281 43.113281 18.015625 43.210938 17.136719 43.234375 C 16.382812 43.257812 16.328125 43.253906 16.105469 43.148438 C 15.949219 43.078125 15.714844 42.886719 15.457031 42.628906 C 15.042969 42.214844 15.042969 42.214844 14.980469 41.871094 C 14.945312 41.679688 14.875 41.386719 14.828125 41.222656 C 14.753906 41 14.710938 40.628906 14.664062 39.816406 C 14.628906 39.210938 14.574219 38.347656 14.539062 37.894531 C 14.449219 36.585938 14.554688 35.210938 14.753906 35.042969 C 14.789062 35.015625 14.976562 34.925781 15.171875 34.847656 C 15.742188 34.613281 15.875 34.414062 15.621094 34.160156 C 15.382812 33.921875 15.230469 33.910156 14.644531 34.074219 C 14.261719 34.1875 14.027344 34.222656 13.742188 34.222656 C 13.300781 34.222656 12.6875 34.085938 12.480469 33.9375 C 12.351562 33.84375 12.328125 33.84375 12.183594 33.902344 C 11.941406 34.003906 11.75 34.253906 11.769531 34.433594 C 11.785156 34.566406 11.824219 34.601562 12.113281 34.757812 C 12.296875 34.851562 12.460938 34.964844 12.480469 34.996094 C 12.589844 35.203125 12.816406 36.394531 12.816406 36.78125 C 12.816406 36.929688 12.761719 37.148438 12.671875 37.378906 C 12.589844 37.574219 12.527344 37.769531 12.527344 37.820312 C 12.527344 37.867188 12.585938 38.0625 12.65625 38.261719 C 12.789062 38.617188 12.789062 38.621094 12.792969 39.9375 C 12.796875 41.414062 12.832031 41.625 13.179688 42.289062 C 13.472656 42.847656 14.21875 43.683594 14.480469 43.746094 C 14.554688 43.765625 14.867188 43.882812 15.167969 44 C 15.625 44.183594 15.796875 44.230469 16.152344 44.257812 C 16.390625 44.273438 16.609375 44.292969 16.632812 44.292969 C 16.660156 44.300781 16.992188 44.269531 17.375 44.230469 Z M 17.375 44.230469 "/>
<path style=" stroke:none;fill-rule:nonzero;fill:rgb(0%,0%,0%);fill-opacity:1;" d="M 29.125 44.710938 C 29.113281 44.699219 28.949219 44.65625 28.761719 44.617188 C 28.46875 44.554688 28.378906 44.554688 28.105469 44.609375 C 27.929688 44.648438 27.75 44.667969 27.707031 44.664062 C 27.664062 44.65625 27.484375 44.621094 27.3125 44.59375 C 26.480469 44.441406 26.203125 43.988281 26.5625 43.378906 C 26.648438 43.222656 26.804688 43.089844 27.113281 42.882812 C 27.644531 42.53125 27.730469 42.402344 27.632812 42.097656 C 27.601562 41.976562 27.585938 41.828125 27.601562 41.753906 C 27.621094 41.6875 27.648438 40.683594 27.667969 39.523438 C 27.695312 37.503906 27.691406 37.242188 27.5625 36.144531 L 27.527344 35.878906 L 27.195312 35.894531 C 26.726562 35.917969 26.292969 36.1875 26.226562 36.5 C 26.167969 36.773438 25.886719 37.320312 25.722656 37.472656 C 25.632812 37.554688 25.390625 37.714844 25.191406 37.820312 L 24.820312 38.015625 L 24.605469 37.914062 C 24.441406 37.84375 24.371094 37.765625 24.296875 37.617188 C 24.109375 37.199219 24 36.40625 24 35.488281 C 24.003906 34.652344 24.070312 34.363281 24.351562 34.078125 L 24.527344 33.894531 L 25.210938 33.875 C 25.589844 33.859375 26.007812 33.824219 26.136719 33.792969 C 26.457031 33.710938 27.628906 33.710938 28.367188 33.789062 C 29.175781 33.875 31.378906 33.910156 31.464844 33.839844 C 31.496094 33.8125 31.726562 33.769531 31.976562 33.738281 C 32.222656 33.714844 32.535156 33.675781 32.664062 33.648438 C 33.207031 33.546875 33.792969 33.921875 33.792969 34.378906 C 33.792969 34.496094 33.964844 34.84375 34.238281 35.265625 C 34.597656 35.832031 34.675781 36.027344 34.675781 36.433594 C 34.671875 36.964844 34.570312 37.125 34.128906 37.28125 C 33.929688 37.355469 33.464844 37.363281 33.296875 37.300781 C 33.121094 37.234375 32.722656 36.800781 32.441406 36.382812 C 32.199219 36.007812 32.199219 36.007812 31.949219 35.980469 C 31.191406 35.898438 30.628906 35.859375 30.46875 35.886719 L 30.292969 35.914062 L 30.292969 36.277344 C 30.289062 36.480469 30.28125 36.941406 30.277344 37.296875 C 30.273438 37.652344 30.277344 38.011719 30.289062 38.089844 C 30.292969 38.167969 30.265625 38.320312 30.214844 38.414062 C 30.140625 38.578125 30.132812 38.699219 30.164062 39.636719 C 30.191406 40.632812 30.238281 41.375 30.316406 42.035156 L 30.351562 42.332031 L 30.667969 42.433594 C 31.445312 42.679688 31.871094 43.109375 31.871094 43.632812 C 31.871094 43.929688 31.804688 44.089844 31.632812 44.21875 C 31.503906 44.308594 31.03125 44.449219 30.839844 44.449219 C 30.777344 44.449219 30.710938 44.472656 30.695312 44.496094 C 30.679688 44.523438 30.621094 44.542969 30.558594 44.542969 C 30.5 44.542969 30.433594 44.5625 30.40625 44.585938 C 30.300781 44.683594 29.207031 44.789062 29.125 44.710938 Z M 30.167969 44.183594 C 30.25 44.152344 30.378906 44.105469 30.457031 44.089844 C 30.539062 44.074219 30.75 44.027344 30.929688 43.988281 C 31.308594 43.910156 31.441406 43.820312 31.441406 43.636719 C 31.441406 43.34375 30.78125 42.867188 30.269531 42.792969 C 30.007812 42.75 29.976562 42.6875 29.878906 42.035156 C 29.726562 40.949219 29.644531 38.4375 29.765625 38.320312 C 29.804688 38.28125 29.824219 37.808594 29.828125 36.855469 L 29.832031 35.449219 L 30.742188 35.457031 C 31.617188 35.460938 32.289062 35.535156 32.453125 35.640625 C 32.496094 35.667969 32.640625 35.855469 32.777344 36.066406 C 32.917969 36.273438 33.132812 36.546875 33.257812 36.675781 C 33.457031 36.878906 33.511719 36.910156 33.675781 36.910156 C 33.945312 36.910156 34.1875 36.777344 34.234375 36.601562 C 34.304688 36.339844 34.191406 36.035156 33.777344 35.390625 C 33.53125 35.011719 33.359375 34.617188 33.359375 34.449219 C 33.359375 34.371094 33.300781 34.28125 33.207031 34.199219 C 33.058594 34.074219 33.035156 34.070312 32.710938 34.105469 C 32.53125 34.125 32.230469 34.152344 32.058594 34.171875 C 31.886719 34.1875 31.707031 34.230469 31.664062 34.261719 C 31.539062 34.367188 29.546875 34.363281 28.535156 34.253906 C 27.496094 34.140625 26.59375 34.136719 26.113281 34.246094 C 25.914062 34.292969 25.515625 34.335938 25.234375 34.34375 C 24.941406 34.355469 24.679688 34.386719 24.648438 34.414062 C 24.609375 34.445312 24.542969 34.570312 24.5 34.683594 C 24.425781 34.871094 24.421875 35.011719 24.453125 35.679688 C 24.488281 36.613281 24.546875 37.046875 24.671875 37.335938 C 24.761719 37.53125 24.777344 37.546875 24.855469 37.476562 C 24.898438 37.433594 24.988281 37.386719 25.050781 37.367188 C 25.359375 37.273438 25.699219 36.804688 25.828125 36.292969 C 25.902344 36.003906 26.09375 35.8125 26.519531 35.597656 C 26.726562 35.496094 26.855469 35.472656 27.375 35.441406 L 27.984375 35.410156 L 27.984375 35.71875 C 27.984375 35.890625 28.019531 36.273438 28.0625 36.574219 C 28.128906 37.050781 28.132812 37.453125 28.109375 39.40625 C 28.089844 40.660156 28.074219 41.753906 28.070312 41.832031 C 28.070312 41.914062 28.078125 42.085938 28.097656 42.214844 C 28.152344 42.582031 28.007812 42.816406 27.523438 43.140625 C 27.054688 43.460938 26.953125 43.554688 26.875 43.738281 C 26.816406 43.875 26.824219 43.890625 26.953125 43.996094 C 27.164062 44.164062 27.652344 44.238281 28.089844 44.164062 C 28.449219 44.101562 28.867188 44.136719 29.136719 44.25 C 29.285156 44.3125 29.972656 44.269531 30.167969 44.183594 Z M 30.167969 44.183594 "/>
<path style=" stroke:none;fill-rule:nonzero;fill:rgb(0%,0%,0%);fill-opacity:1;" d="M 22.453125 29.929688 C 22.445312 29.914062 22.296875 29.878906 22.125 29.855469 C 21.957031 29.828125 21.710938 29.785156 21.574219 29.753906 C 21.445312 29.730469 21.058594 29.6875 20.710938 29.664062 C 20.121094 29.621094 19.875 29.585938 19.320312 29.476562 C 19.191406 29.453125 18.84375 29.429688 18.550781 29.425781 C 18.0625 29.417969 17.828125 29.394531 17.0625 29.273438 C 16.90625 29.246094 16.484375 29.207031 16.128906 29.183594 C 15.460938 29.140625 15.039062 29.082031 14.945312 29.03125 C 14.917969 29.011719 14.597656 28.972656 14.226562 28.949219 C 13.261719 28.875 12.960938 28.761719 11.992188 28.125 C 11.683594 27.917969 11.324219 27.691406 11.1875 27.625 C 11.058594 27.550781 10.925781 27.464844 10.890625 27.425781 C 10.863281 27.390625 10.820312 27.359375 10.796875 27.359375 C 10.761719 27.359375 10.640625 27.292969 10.007812 26.914062 C 9.878906 26.835938 9.648438 26.707031 9.503906 26.625 C 9.175781 26.449219 8.855469 26.222656 8.703125 26.0625 C 8.28125 25.617188 7.703125 24.941406 7.613281 24.773438 C 7.589844 24.730469 7.511719 24.632812 7.441406 24.550781 C 7.160156 24.246094 6.847656 23.730469 6.753906 23.429688 C 6.699219 23.257812 6.636719 22.929688 6.621094 22.703125 C 6.601562 22.476562 6.5625 22.167969 6.539062 22.007812 C 6.332031 20.734375 6.328125 20.660156 6.351562 19.871094 C 6.371094 19.179688 6.390625 19.027344 6.503906 18.671875 C 6.574219 18.445312 6.667969 18.195312 6.699219 18.109375 C 6.738281 18.027344 6.769531 17.945312 6.769531 17.929688 C 6.769531 17.914062 6.820312 17.785156 6.882812 17.648438 C 6.945312 17.511719 7.023438 17.3125 7.054688 17.207031 C 7.089844 17.101562 7.15625 16.933594 7.203125 16.832031 C 7.257812 16.726562 7.296875 16.609375 7.296875 16.558594 C 7.296875 16.507812 7.320312 16.453125 7.34375 16.441406 C 7.371094 16.425781 7.390625 16.371094 7.390625 16.324219 C 7.390625 16.167969 7.578125 15.664062 7.746094 15.378906 C 7.839844 15.226562 7.96875 15 8.03125 14.878906 C 8.097656 14.761719 8.195312 14.621094 8.25 14.574219 C 8.308594 14.519531 8.351562 14.460938 8.351562 14.433594 C 8.351562 14.386719 8.582031 14.101562 8.796875 13.871094 C 8.910156 13.757812 9.128906 13.433594 9.25 13.203125 C 9.371094 12.988281 9.320312 12.796875 8.976562 12.109375 C 8.792969 11.742188 8.640625 11.394531 8.640625 11.34375 C 8.640625 11.292969 8.621094 11.230469 8.601562 11.207031 C 8.578125 11.179688 8.535156 11.039062 8.496094 10.894531 C 8.460938 10.753906 8.394531 10.546875 8.347656 10.441406 C 8.304688 10.335938 8.238281 10.160156 8.207031 10.054688 C 8.175781 9.949219 8.132812 9.824219 8.105469 9.78125 C 8.082031 9.734375 8.0625 9.667969 8.0625 9.632812 C 8.0625 9.601562 8.019531 9.480469 7.96875 9.371094 C 7.894531 9.214844 7.871094 9.078125 7.871094 8.742188 C 7.871094 8.320312 7.890625 8.242188 8.070312 7.847656 C 8.230469 7.488281 8.574219 6.972656 9.167969 6.171875 C 9.679688 5.476562 9.957031 5.222656 10.488281 4.945312 C 10.742188 4.808594 10.800781 4.800781 11.25 4.800781 C 11.515625 4.800781 11.960938 4.839844 12.238281 4.882812 C 13.230469 5.039062 15.089844 4.929688 16.054688 4.65625 C 16.136719 4.636719 16.414062 4.59375 16.679688 4.566406 C 16.945312 4.53125 17.25 4.488281 17.367188 4.464844 C 17.476562 4.433594 17.648438 4.414062 17.75 4.414062 C 17.847656 4.414062 18.089844 4.382812 18.289062 4.339844 C 18.484375 4.296875 18.960938 4.242188 19.34375 4.222656 C 20.199219 4.171875 20.921875 4.09375 21.238281 4.027344 C 21.375 4 21.675781 3.964844 21.910156 3.949219 C 22.152344 3.9375 22.371094 3.902344 22.40625 3.875 C 22.503906 3.796875 23.902344 3.773438 24.433594 3.839844 C 24.679688 3.875 25.15625 3.917969 25.488281 3.9375 C 26.070312 3.96875 26.476562 4.023438 27.023438 4.132812 C 27.167969 4.160156 27.625 4.203125 28.03125 4.230469 C 29.101562 4.292969 29.746094 4.355469 30.046875 4.414062 C 30.191406 4.445312 30.484375 4.488281 30.695312 4.511719 C 31.09375 4.554688 31.484375 4.621094 31.894531 4.707031 C 32.03125 4.734375 32.289062 4.777344 32.480469 4.800781 C 32.832031 4.839844 32.894531 4.851562 33.238281 4.957031 C 33.5 5.035156 34.265625 5.4375 34.679688 5.707031 C 34.867188 5.832031 35.070312 5.957031 35.136719 5.992188 C 35.335938 6.089844 35.46875 6.171875 35.554688 6.25 C 35.601562 6.292969 35.6875 6.339844 35.75 6.359375 C 35.808594 6.375 35.917969 6.441406 35.996094 6.507812 C 36.070312 6.570312 36.214844 6.65625 36.3125 6.695312 C 36.542969 6.796875 36.867188 7.140625 37.023438 7.464844 C 37.1875 7.789062 37.191406 8.089844 37.046875 8.347656 C 36.921875 8.558594 36.398438 9.234375 36.171875 9.476562 C 35.851562 9.800781 35.824219 10.03125 36.054688 10.398438 C 36.132812 10.527344 36.214844 10.640625 36.234375 10.65625 C 36.25 10.671875 36.339844 10.777344 36.425781 10.894531 C 36.519531 11.015625 36.753906 11.25 36.945312 11.425781 C 37.699219 12.085938 38.007812 12.460938 38.324219 13.117188 C 38.394531 13.273438 38.523438 13.488281 38.609375 13.597656 C 38.691406 13.707031 38.792969 13.863281 38.832031 13.933594 C 38.871094 14.011719 39.042969 14.25 39.214844 14.46875 C 39.390625 14.683594 39.570312 14.921875 39.625 15 C 39.804688 15.265625 40.167969 16.050781 40.304688 16.484375 C 40.421875 16.847656 40.472656 16.9375 40.671875 17.132812 C 40.9375 17.386719 41.230469 17.914062 41.289062 18.253906 C 41.308594 18.378906 41.351562 18.59375 41.378906 18.734375 C 41.5 19.28125 41.582031 22.789062 41.492188 23.160156 C 41.460938 23.265625 41.386719 23.460938 41.320312 23.59375 C 41.25 23.726562 41.183594 23.890625 41.167969 23.957031 C 41.121094 24.152344 40.640625 24.574219 40.46875 24.574219 C 40.316406 24.574219 40.089844 24.761719 39.453125 25.414062 C 39.140625 25.738281 38.351562 26.398438 38.285156 26.398438 C 38.273438 26.398438 38.035156 26.554688 37.757812 26.734375 C 37.476562 26.921875 37.238281 27.070312 37.21875 27.070312 C 37.203125 27.070312 37.128906 27.132812 37.042969 27.214844 C 36.957031 27.292969 36.863281 27.359375 36.835938 27.359375 C 36.804688 27.359375 36.742188 27.402344 36.695312 27.457031 C 36.648438 27.507812 36.589844 27.550781 36.566406 27.550781 C 36.542969 27.550781 36.425781 27.621094 36.3125 27.695312 C 36.195312 27.777344 36.082031 27.839844 36.054688 27.839844 C 36.023438 27.839844 36 27.859375 36 27.878906 C 36 27.902344 35.898438 27.972656 35.773438 28.035156 C 35.644531 28.097656 35.449219 28.21875 35.328125 28.300781 C 34.71875 28.71875 34.117188 28.945312 33.585938 28.949219 C 33.230469 28.949219 32.921875 28.992188 32.542969 29.089844 C 32.425781 29.117188 31.964844 29.160156 31.511719 29.183594 C 31.066406 29.207031 30.558594 29.25 30.382812 29.28125 C 30.210938 29.308594 29.835938 29.351562 29.542969 29.378906 C 28.609375 29.460938 28.15625 29.515625 27.9375 29.566406 C 27.816406 29.597656 27.375 29.640625 26.953125 29.664062 C 26.167969 29.707031 25.949219 29.734375 25.273438 29.875 C 24.980469 29.933594 24.609375 29.953125 23.683594 29.953125 C 23.019531 29.953125 22.46875 29.941406 22.453125 29.929688 Z M 25.15625 29.425781 C 25.40625 29.371094 25.675781 29.328125 25.761719 29.328125 C 25.84375 29.328125 25.929688 29.308594 25.945312 29.28125 C 25.964844 29.25 26.242188 29.230469 26.605469 29.226562 C 26.957031 29.226562 27.335938 29.207031 27.457031 29.183594 C 27.574219 29.160156 27.867188 29.105469 28.105469 29.058594 C 28.34375 29.015625 28.734375 28.972656 28.96875 28.96875 C 29.207031 28.964844 29.660156 28.921875 29.976562 28.871094 C 30.292969 28.828125 30.921875 28.777344 31.367188 28.757812 C 31.820312 28.738281 32.210938 28.707031 32.246094 28.691406 C 32.351562 28.621094 33.042969 28.507812 33.550781 28.46875 C 34.136719 28.425781 34.472656 28.316406 34.914062 28.007812 C 35.078125 27.898438 35.3125 27.75 35.433594 27.679688 C 35.644531 27.566406 36.105469 27.273438 36.503906 27.003906 C 36.726562 26.859375 37.46875 26.367188 38.0625 25.976562 C 38.320312 25.808594 38.753906 25.429688 39.222656 24.972656 C 39.769531 24.441406 40.035156 24.214844 40.203125 24.144531 C 40.433594 24.042969 40.703125 23.832031 40.703125 23.75 C 40.703125 23.726562 40.78125 23.511719 40.875 23.265625 C 41.097656 22.707031 41.113281 22.488281 41.042969 20.664062 C 40.976562 18.691406 40.828125 18.042969 40.324219 17.566406 C 40.117188 17.371094 40.078125 17.300781 39.917969 16.789062 C 39.628906 15.902344 39.402344 15.46875 38.867188 14.789062 C 38.46875 14.28125 38.15625 13.808594 37.945312 13.390625 C 37.640625 12.796875 37.433594 12.53125 36.707031 11.839844 C 36.007812 11.183594 35.554688 10.613281 35.492188 10.328125 C 35.476562 10.257812 35.441406 10.160156 35.417969 10.113281 C 35.386719 10.050781 35.40625 9.941406 35.480469 9.714844 C 35.566406 9.460938 35.671875 9.308594 36.058594 8.867188 C 36.3125 8.566406 36.570312 8.238281 36.628906 8.125 L 36.730469 7.929688 L 36.570312 7.632812 C 36.460938 7.425781 36.351562 7.296875 36.214844 7.210938 C 35.75 6.917969 35.453125 6.730469 35.160156 6.550781 C 34.980469 6.445312 34.683594 6.257812 34.488281 6.132812 C 34.074219 5.875 33.171875 5.410156 32.929688 5.335938 C 32.835938 5.308594 32.578125 5.261719 32.351562 5.230469 C 32.125 5.207031 31.695312 5.140625 31.390625 5.089844 C 31.089844 5.03125 30.632812 4.96875 30.382812 4.949219 C 30.132812 4.925781 29.875 4.890625 29.808594 4.875 C 29.546875 4.808594 28.503906 4.695312 27.839844 4.65625 C 27.457031 4.636719 26.960938 4.585938 26.734375 4.539062 C 26.511719 4.496094 26.027344 4.441406 25.65625 4.414062 C 25.285156 4.386719 24.714844 4.328125 24.382812 4.292969 C 23.753906 4.210938 22.839844 4.222656 22.585938 4.320312 C 22.515625 4.347656 22.320312 4.367188 22.152344 4.367188 C 21.988281 4.367188 21.648438 4.410156 21.402344 4.460938 C 20.832031 4.574219 20.035156 4.65625 19.441406 4.65625 C 19.1875 4.65625 18.910156 4.675781 18.835938 4.703125 C 18.757812 4.726562 18.296875 4.804688 17.808594 4.871094 C 17.320312 4.933594 16.671875 5.035156 16.367188 5.089844 C 16.066406 5.140625 15.632812 5.203125 15.40625 5.230469 C 15.183594 5.261719 14.816406 5.3125 14.597656 5.355469 C 14.28125 5.417969 13.992188 5.429688 13.277344 5.410156 C 12.773438 5.398438 12.28125 5.363281 12.191406 5.332031 C 12.101562 5.304688 11.792969 5.265625 11.515625 5.246094 C 11.035156 5.21875 10.992188 5.226562 10.734375 5.34375 C 10.453125 5.472656 9.917969 5.9375 9.726562 6.222656 C 9.671875 6.308594 9.503906 6.53125 9.355469 6.726562 C 8.957031 7.253906 8.597656 7.800781 8.460938 8.09375 C 8.363281 8.320312 8.347656 8.398438 8.367188 8.769531 C 8.378906 9.113281 8.425781 9.292969 8.585938 9.742188 C 8.703125 10.046875 8.816406 10.378906 8.851562 10.472656 C 8.878906 10.570312 8.921875 10.664062 8.941406 10.683594 C 8.960938 10.703125 8.976562 10.765625 8.976562 10.824219 C 8.976562 10.957031 9.144531 11.367188 9.476562 12.054688 C 9.839844 12.804688 9.863281 12.992188 9.632812 13.453125 C 9.539062 13.640625 9.308594 13.988281 9.125 14.21875 C 8.496094 15.003906 7.871094 16.027344 7.871094 16.277344 C 7.871094 16.371094 7.566406 17.242188 7.34375 17.761719 C 7.097656 18.339844 6.910156 18.910156 6.859375 19.222656 C 6.777344 19.707031 6.757812 20.453125 6.816406 20.832031 C 6.96875 21.816406 7.019531 22.136719 7.050781 22.535156 C 7.113281 23.183594 7.320312 23.6875 7.71875 24.152344 C 7.820312 24.265625 7.964844 24.457031 8.039062 24.570312 C 8.121094 24.691406 8.363281 24.972656 8.582031 25.203125 C 8.796875 25.433594 8.976562 25.640625 8.976562 25.664062 C 8.976562 25.714844 9.664062 26.207031 9.730469 26.207031 C 9.753906 26.207031 9.925781 26.304688 10.109375 26.414062 C 10.292969 26.53125 10.707031 26.785156 11.039062 26.976562 C 11.371094 27.171875 11.898438 27.503906 12.210938 27.710938 C 13.105469 28.304688 13.511719 28.464844 14.152344 28.464844 C 14.429688 28.464844 14.769531 28.515625 15.335938 28.644531 C 15.523438 28.691406 15.964844 28.738281 16.320312 28.757812 C 16.675781 28.777344 17.207031 28.828125 17.496094 28.871094 C 17.789062 28.921875 18.28125 28.957031 18.601562 28.96875 C 19.132812 28.976562 19.996094 29.089844 20.117188 29.164062 C 20.144531 29.183594 20.476562 29.210938 20.851562 29.238281 C 21.503906 29.269531 22.523438 29.417969 22.59375 29.488281 C 22.609375 29.503906 23.09375 29.519531 23.664062 29.519531 C 24.519531 29.519531 24.789062 29.5 25.15625 29.425781 Z M 25.15625 29.425781 "/>
<path style=" stroke:none;fill-rule:nonzero;fill:rgb(0%,0%,0%);fill-opacity:1;" d="M 11.027344 10.507812 C 10.761719 10.445312 10.589844 10.34375 10.441406 10.167969 C 10.316406 10.023438 10.308594 9.988281 10.328125 9.648438 C 10.34375 9.445312 10.40625 9.097656 10.476562 8.875 C 10.546875 8.65625 10.628906 8.378906 10.65625 8.265625 C 10.734375 7.957031 10.914062 7.863281 11.355469 7.886719 C 11.75 7.90625 12.101562 8.070312 12.355469 8.355469 C 12.582031 8.601562 12.714844 9.160156 12.625 9.460938 C 12.589844 9.574219 12.566406 9.78125 12.566406 9.910156 C 12.582031 10.265625 12.457031 10.441406 12.144531 10.507812 C 11.859375 10.570312 11.285156 10.570312 11.027344 10.507812 Z M 12.082031 9.773438 C 12.089844 9.613281 12.113281 9.464844 12.144531 9.4375 C 12.246094 9.335938 12.160156 8.855469 12.003906 8.671875 C 11.878906 8.519531 11.53125 8.351562 11.332031 8.351562 C 11.121094 8.351562 11.039062 8.4375 11.039062 8.660156 C 11.039062 8.730469 10.996094 8.875 10.949219 8.992188 C 10.796875 9.320312 10.722656 9.726562 10.796875 9.855469 C 10.890625 10.03125 11.03125 10.070312 11.566406 10.0625 L 12.070312 10.054688 Z M 12.082031 9.773438 "/>
<path style=" stroke:none;fill-rule:nonzero;fill:rgb(0%,0%,0%);fill-opacity:1;" d="M 22.320312 9.925781 C 22.230469 9.898438 22.027344 9.886719 21.878906 9.902344 C 21.65625 9.921875 21.582031 9.90625 21.488281 9.839844 C 21.355469 9.734375 20.855469 9.558594 20.519531 9.488281 C 20.125 9.417969 19.253906 9.394531 19.105469 9.457031 C 18.992188 9.5 18.941406 9.496094 18.8125 9.425781 C 18.714844 9.378906 18.546875 9.351562 18.390625 9.351562 C 18.226562 9.351562 18.105469 9.328125 18.0625 9.28125 C 18.007812 9.234375 17.851562 9.214844 17.433594 9.214844 C 16.90625 9.214844 16.851562 9.207031 16.585938 9.070312 C 16.425781 8.996094 16.234375 8.929688 16.160156 8.929688 C 16.074219 8.929688 15.980469 8.878906 15.898438 8.789062 C 15.824219 8.710938 15.652344 8.574219 15.519531 8.488281 C 15.378906 8.394531 15.222656 8.261719 15.167969 8.195312 C 15.101562 8.105469 15.019531 8.0625 14.929688 8.0625 C 14.769531 8.0625 14.617188 7.867188 14.660156 7.707031 C 14.683594 7.601562 14.972656 7.378906 15.335938 7.160156 C 15.441406 7.097656 15.582031 7 15.648438 6.941406 C 15.714844 6.878906 15.878906 6.773438 16.011719 6.699219 C 16.140625 6.628906 16.367188 6.484375 16.507812 6.378906 C 16.90625 6.078125 17.054688 6.015625 17.953125 5.792969 C 20.367188 5.1875 21.078125 5.09375 23.351562 5.054688 C 25.113281 5.027344 25.199219 5.03125 25.699219 5.132812 C 26.199219 5.238281 27.003906 5.328125 27.527344 5.347656 C 27.679688 5.351562 27.835938 5.394531 27.945312 5.460938 C 28.042969 5.519531 28.242188 5.59375 28.398438 5.617188 C 28.554688 5.644531 28.980469 5.761719 29.351562 5.875 C 29.722656 5.996094 30.175781 6.132812 30.359375 6.191406 C 30.546875 6.25 30.910156 6.390625 31.175781 6.5 C 31.441406 6.613281 31.757812 6.742188 31.886719 6.789062 C 32.011719 6.835938 32.226562 6.96875 32.367188 7.089844 C 32.5 7.203125 32.671875 7.339844 32.75 7.382812 C 32.847656 7.441406 32.878906 7.496094 32.878906 7.613281 C 32.878906 7.808594 32.617188 8.207031 32.425781 8.300781 C 32.203125 8.40625 32.195312 8.410156 31.894531 8.617188 C 31.535156 8.859375 31.539062 8.859375 31.359375 8.945312 C 31.273438 8.992188 31.132812 9.0625 31.046875 9.105469 C 30.929688 9.164062 30.738281 9.1875 30.269531 9.195312 C 29.246094 9.222656 28.886719 9.257812 28.71875 9.359375 C 28.589844 9.4375 28.503906 9.445312 28.140625 9.421875 C 27.632812 9.394531 27.140625 9.484375 26.664062 9.695312 C 26.300781 9.859375 26.246094 9.867188 26.097656 9.769531 C 26.011719 9.714844 25.949219 9.710938 25.824219 9.742188 C 25.734375 9.773438 25.558594 9.792969 25.441406 9.792969 C 25.320312 9.792969 25.199219 9.8125 25.171875 9.835938 C 25.070312 9.929688 22.628906 10.007812 22.320312 9.925781 Z M 24.742188 9.402344 C 24.929688 9.375 25.175781 9.339844 25.296875 9.332031 C 26.40625 9.226562 26.566406 9.203125 27.003906 9.066406 C 27.085938 9.042969 27.441406 9 27.796875 8.976562 C 28.152344 8.945312 28.507812 8.902344 28.585938 8.878906 C 28.664062 8.851562 29.054688 8.808594 29.449219 8.777344 C 30.4375 8.707031 30.476562 8.703125 30.730469 8.644531 C 31.230469 8.53125 32.160156 7.902344 32.160156 7.675781 C 32.160156 7.554688 31.863281 7.316406 31.632812 7.246094 C 31.511719 7.210938 31.292969 7.125 31.140625 7.046875 C 30.988281 6.972656 30.835938 6.910156 30.800781 6.910156 C 30.761719 6.910156 30.675781 6.867188 30.609375 6.816406 C 30.542969 6.761719 30.441406 6.71875 30.390625 6.71875 C 30.332031 6.71875 30.203125 6.675781 30.097656 6.625 C 29.992188 6.570312 29.871094 6.527344 29.832031 6.527344 C 29.789062 6.527344 29.542969 6.460938 29.289062 6.378906 C 28.34375 6.082031 28.234375 6.046875 28.09375 6.046875 C 28.011719 6.046875 27.894531 6.003906 27.824219 5.953125 C 27.757812 5.898438 27.644531 5.855469 27.566406 5.855469 C 27.496094 5.855469 27.355469 5.832031 27.265625 5.808594 C 27.171875 5.777344 26.804688 5.734375 26.449219 5.707031 C 26.09375 5.679688 25.769531 5.628906 25.734375 5.601562 C 25.640625 5.523438 22.359375 5.496094 21.601562 5.5625 C 21.089844 5.609375 20.210938 5.746094 19.753906 5.851562 C 19.382812 5.933594 19.03125 6.007812 18.839844 6.046875 C 18.734375 6.070312 18.5625 6.113281 18.457031 6.144531 C 18.234375 6.207031 17.964844 6.273438 17.6875 6.335938 C 17.582031 6.359375 17.441406 6.394531 17.375 6.40625 C 17.308594 6.425781 16.875 6.695312 16.414062 7.003906 C 15.71875 7.472656 15.570312 7.589844 15.5625 7.695312 C 15.539062 7.90625 15.707031 8.078125 16.175781 8.3125 C 16.242188 8.347656 16.304688 8.386719 16.320312 8.398438 C 16.390625 8.472656 16.671875 8.597656 16.875 8.640625 C 17.007812 8.671875 17.15625 8.707031 17.207031 8.71875 C 17.261719 8.730469 17.488281 8.75 17.710938 8.765625 C 18.121094 8.789062 18.488281 8.839844 18.625 8.894531 C 18.664062 8.914062 19.136719 8.945312 19.679688 8.976562 C 20.648438 9.019531 20.671875 9.023438 21.265625 9.222656 L 21.863281 9.421875 L 23.015625 9.457031 C 23.648438 9.46875 24.222656 9.480469 24.289062 9.46875 C 24.355469 9.464844 24.5625 9.433594 24.742188 9.402344 Z M 24.742188 9.402344 "/>
<path style=" stroke:none;fill-rule:nonzero;fill:rgb(59.215686%,50.588235%,32.156863%);fill-opacity:1;" d="M 44.398438 44.660156 C 43.359375 44.386719 42.585938 43.597656 41.425781 41.640625 C 40.914062 40.777344 40.347656 39.925781 40.152344 39.714844 C 39.984375 39.539062 39.824219 39.507812 39.5 39.601562 C 39.265625 39.667969 39.210938 39.804688 39.210938 40.386719 C 39.210938 40.65625 39.203125 40.949219 39.1875 41.050781 C 39.148438 41.289062 39.300781 42.585938 39.378906 42.664062 C 39.414062 42.695312 39.644531 42.8125 39.894531 42.917969 C 40.140625 43.027344 40.445312 43.191406 40.566406 43.28125 L 40.789062 43.449219 L 40.714844 43.640625 C 40.671875 43.746094 40.585938 43.859375 40.515625 43.890625 C 40.433594 43.933594 40.078125 43.964844 39.457031 43.980469 C 38.894531 44 38.386719 44.039062 38.183594 44.089844 C 37.765625 44.179688 37.753906 44.179688 37.65625 44.078125 C 37.59375 44.015625 37.554688 44.011719 37.492188 44.050781 C 37.445312 44.078125 37.117188 44.117188 36.761719 44.136719 C 36.042969 44.167969 35.945312 44.144531 35.796875 43.890625 C 35.710938 43.742188 35.710938 43.742188 35.855469 43.546875 C 36.023438 43.308594 36.203125 43.210938 36.511719 43.167969 C 36.820312 43.128906 36.882812 43.089844 37.046875 42.847656 C 37.300781 42.480469 37.34375 42.257812 37.34375 41.355469 C 37.34375 40.90625 37.363281 40.460938 37.390625 40.367188 C 37.414062 40.277344 37.464844 39.757812 37.496094 39.210938 C 37.546875 38.347656 37.539062 38.097656 37.46875 37.242188 C 37.355469 35.902344 37.28125 35.765625 36.667969 35.683594 C 36.28125 35.628906 36.128906 35.546875 35.902344 35.273438 L 35.691406 35.03125 L 35.8125 34.820312 C 35.917969 34.621094 35.9375 34.609375 36.128906 34.609375 C 36.273438 34.609375 36.433594 34.550781 36.695312 34.410156 C 37.113281 34.1875 37.265625 34.171875 38.136719 34.265625 C 38.5 34.308594 38.683594 34.308594 38.894531 34.265625 C 39.339844 34.175781 40.433594 34.238281 40.976562 34.386719 C 42.144531 34.707031 42.78125 35.3125 42.925781 36.234375 C 43.027344 36.898438 42.839844 37.53125 42.398438 38.015625 C 42.121094 38.324219 41.808594 38.777344 41.808594 38.875 C 41.808594 39.023438 42.625 40.386719 43.324219 41.398438 C 43.734375 41.996094 44.089844 42.363281 44.855469 43.003906 C 45.289062 43.359375 45.875 43.679688 46.09375 43.679688 C 46.257812 43.679688 46.261719 43.699219 46.210938 43.972656 C 46.167969 44.1875 46.132812 44.242188 45.902344 44.425781 C 45.757812 44.535156 45.558594 44.648438 45.460938 44.683594 C 45.210938 44.753906 44.722656 44.746094 44.398438 44.660156 Z M 40.222656 38.71875 C 40.914062 38.367188 41.328125 37.832031 41.328125 37.277344 C 41.328125 36.761719 40.953125 35.902344 40.613281 35.625 C 40.242188 35.324219 39.777344 35.210938 39.484375 35.351562 C 39.046875 35.558594 38.871094 35.992188 38.851562 36.863281 C 38.839844 37.195312 38.824219 37.59375 38.804688 37.746094 C 38.753906 38.210938 38.914062 38.597656 39.226562 38.75 C 39.46875 38.875 39.945312 38.855469 40.222656 38.71875 Z M 40.222656 38.71875 "/>
<path style=" stroke:none;fill-rule:nonzero;fill:rgb(59.215686%,50.588235%,32.156863%);fill-opacity:1;" d="M 2.839844 44.390625 C 2.8125 44.351562 2.769531 44.230469 2.742188 44.117188 C 2.683594 43.851562 2.75 43.753906 3.25 43.339844 C 3.441406 43.179688 3.621094 43.011719 3.644531 42.964844 C 3.800781 42.675781 3.917969 40.746094 3.816406 40.105469 C 3.75 39.667969 3.757812 38.25 3.835938 37.1875 C 3.902344 36.28125 3.902344 36.222656 3.816406 35.972656 C 3.664062 35.519531 3.1875 35.144531 2.609375 35.03125 C 2.304688 34.96875 2.078125 34.761719 2.15625 34.613281 C 2.25 34.433594 2.683594 34.085938 2.859375 34.042969 C 3.035156 34 4.707031 34 6.382812 34.042969 C 7.050781 34.054688 7.09375 34.066406 7.390625 34.210938 C 7.703125 34.363281 8.136719 34.589844 8.238281 34.644531 C 8.269531 34.664062 8.503906 34.867188 8.769531 35.09375 C 9.207031 35.472656 9.253906 35.535156 9.375 35.839844 C 9.445312 36.019531 9.503906 36.226562 9.503906 36.289062 C 9.503906 36.351562 9.445312 36.730469 9.378906 37.128906 L 9.253906 37.847656 L 8.722656 38.386719 C 8.378906 38.730469 8.203125 38.941406 8.230469 38.972656 C 8.261719 39 8.519531 39.140625 8.808594 39.289062 C 9.769531 39.777344 9.984375 39.980469 9.984375 40.382812 C 9.984375 40.503906 10.007812 40.617188 10.03125 40.632812 C 10.0625 40.644531 10.078125 40.722656 10.078125 40.800781 C 10.078125 40.871094 10.125 41.035156 10.171875 41.15625 C 10.285156 41.417969 10.296875 41.878906 10.191406 42.214844 C 10.0625 42.625 9.902344 42.894531 9.5625 43.273438 C 9.265625 43.597656 9.195312 43.652344 8.898438 43.757812 C 8.71875 43.820312 8.539062 43.871094 8.503906 43.871094 C 8.46875 43.871094 8.292969 43.957031 8.117188 44.0625 C 7.785156 44.261719 7.601562 44.300781 7.445312 44.199219 C 7.378906 44.160156 7.273438 44.15625 7.027344 44.195312 C 6.824219 44.222656 6.125 44.238281 5.246094 44.222656 C 3.863281 44.203125 3.789062 44.207031 3.519531 44.308594 C 3.144531 44.441406 2.914062 44.472656 2.839844 44.390625 Z M 6.40625 42.929688 C 6.511719 42.925781 6.710938 42.875 6.839844 42.816406 C 7.089844 42.699219 7.496094 42.667969 7.738281 42.730469 C 7.921875 42.78125 8.121094 42.601562 8.308594 42.203125 L 8.457031 41.878906 L 8.375 41.398438 C 8.261719 40.734375 8.203125 40.613281 7.847656 40.300781 C 7.679688 40.152344 7.503906 39.96875 7.464844 39.898438 C 7.339844 39.6875 7.09375 39.5625 6.710938 39.503906 C 6.519531 39.480469 6.234375 39.433594 6.082031 39.402344 C 5.824219 39.355469 5.792969 39.355469 5.6875 39.457031 C 5.542969 39.589844 5.472656 39.863281 5.449219 40.390625 C 5.433594 40.632812 5.398438 40.988281 5.375 41.183594 C 5.292969 41.746094 5.28125 42.351562 5.34375 42.4375 C 5.46875 42.605469 6.066406 43.011719 6.140625 42.980469 C 6.183594 42.960938 6.300781 42.941406 6.40625 42.929688 Z M 6.8125 38.515625 C 7.109375 38.410156 7.230469 38.304688 7.546875 37.863281 C 7.894531 37.378906 7.90625 37.34375 7.789062 36.992188 C 7.734375 36.832031 7.660156 36.589844 7.628906 36.457031 C 7.523438 36.046875 7.421875 35.9375 6.585938 35.34375 C 6.519531 35.300781 6.417969 35.308594 6.085938 35.390625 C 5.46875 35.546875 5.417969 35.628906 5.390625 36.601562 C 5.378906 36.96875 5.371094 37.316406 5.367188 37.367188 C 5.355469 37.53125 5.53125 38.324219 5.601562 38.4375 C 5.640625 38.5 5.71875 38.566406 5.773438 38.59375 C 5.933594 38.660156 6.519531 38.617188 6.8125 38.515625 Z M 6.8125 38.515625 "/>
<path style=" stroke:none;fill-rule:nonzero;fill:rgb(59.215686%,50.588235%,32.156863%);fill-opacity:1;" d="M 15.53125 44.203125 C 15.316406 44.132812 15.023438 44.019531 14.875 43.953125 C 14.726562 43.886719 14.535156 43.820312 14.453125 43.800781 C 14.179688 43.742188 13.441406 42.921875 13.132812 42.335938 C 12.78125 41.671875 12.75 41.460938 12.742188 39.984375 C 12.738281 38.671875 12.738281 38.660156 12.609375 38.308594 C 12.445312 37.859375 12.445312 37.769531 12.625 37.328125 C 12.707031 37.128906 12.769531 36.882812 12.769531 36.78125 C 12.761719 36.4375 12.53125 35.238281 12.433594 35.042969 C 12.414062 35.011719 12.25 34.902344 12.066406 34.804688 C 11.746094 34.636719 11.734375 34.628906 11.722656 34.429688 C 11.707031 34.265625 11.730469 34.203125 11.855469 34.0625 C 11.941406 33.964844 12.089844 33.863281 12.191406 33.835938 C 12.355469 33.789062 12.394531 33.792969 12.523438 33.882812 C 12.726562 34.027344 13.34375 34.175781 13.746094 34.175781 C 13.980469 34.175781 14.242188 34.132812 14.585938 34.03125 C 15.152344 33.867188 15.207031 33.863281 15.425781 33.957031 C 15.78125 34.105469 15.90625 34.433594 15.679688 34.644531 C 15.625 34.703125 15.414062 34.8125 15.222656 34.894531 C 15.023438 34.972656 14.835938 35.0625 14.804688 35.09375 C 14.601562 35.261719 14.5 36.574219 14.585938 37.847656 C 14.621094 38.300781 14.679688 39.164062 14.710938 39.769531 C 14.761719 40.578125 14.804688 40.953125 14.875 41.175781 C 14.921875 41.335938 14.996094 41.628906 15.027344 41.824219 C 15.089844 42.167969 15.089844 42.167969 15.503906 42.582031 C 15.761719 42.839844 16 43.03125 16.152344 43.097656 C 16.378906 43.203125 16.433594 43.210938 17.136719 43.1875 C 17.960938 43.15625 18.457031 43.054688 18.875 42.832031 C 19.339844 42.574219 19.546875 42.175781 19.78125 41.089844 C 19.949219 40.328125 20.117188 39.78125 20.320312 39.382812 L 20.457031 39.101562 L 20.40625 37.726562 C 20.371094 36.972656 20.363281 36.238281 20.378906 36.089844 C 20.417969 35.765625 20.347656 35.609375 20.035156 35.332031 C 19.785156 35.113281 19.382812 34.945312 19.109375 34.945312 C 18.664062 34.945312 18.40625 34.699219 18.496094 34.359375 C 18.566406 34.066406 18.824219 33.992188 19.40625 34.105469 C 19.921875 34.199219 21.457031 34.199219 21.964844 34.105469 C 22.359375 34.027344 22.414062 34.042969 22.515625 34.234375 C 22.558594 34.316406 22.527344 34.367188 22.285156 34.585938 C 22.132812 34.726562 21.984375 34.84375 21.960938 34.847656 C 21.800781 34.851562 21.609375 35.441406 21.519531 36.183594 C 21.433594 36.886719 21.433594 36.984375 21.476562 37.535156 C 21.519531 38.011719 21.519531 37.992188 21.484375 38.730469 C 21.457031 39.390625 21.441406 39.496094 21.34375 39.6875 C 21.308594 39.773438 21.308594 39.820312 21.351562 39.886719 C 21.382812 39.945312 21.390625 39.988281 21.359375 40.007812 C 21.332031 40.023438 21.3125 40.257812 21.3125 40.527344 C 21.3125 40.972656 21.296875 41.042969 21.167969 41.324219 C 21.085938 41.492188 20.984375 41.683594 20.933594 41.753906 C 20.886719 41.824219 20.832031 41.941406 20.8125 42.015625 C 20.792969 42.085938 20.730469 42.171875 20.667969 42.195312 C 20.605469 42.226562 20.53125 42.300781 20.5 42.363281 C 20.472656 42.433594 20.355469 42.585938 20.242188 42.710938 C 20.125 42.835938 19.996094 42.992188 19.953125 43.066406 C 19.910156 43.136719 19.738281 43.285156 19.574219 43.398438 C 19.40625 43.507812 19.160156 43.703125 19.027344 43.832031 C 18.816406 44.039062 18.75 44.074219 18.523438 44.105469 C 18.378906 44.125 18.238281 44.15625 18.210938 44.167969 C 18.121094 44.226562 17.117188 44.320312 16.515625 44.324219 C 15.992188 44.328125 15.875 44.3125 15.53125 44.203125 Z M 15.53125 44.203125 "/>
<path style=" stroke:none;fill-rule:nonzero;fill:rgb(59.215686%,50.588235%,32.156863%);fill-opacity:1;" d="M 29.039062 44.285156 C 28.761719 44.179688 28.367188 44.15625 28.078125 44.222656 C 27.859375 44.273438 27.75 44.273438 27.4375 44.222656 C 26.566406 44.074219 26.566406 43.71875 27.433594 43.128906 C 27.773438 42.894531 27.886719 42.789062 27.980469 42.605469 C 28.085938 42.398438 28.089844 42.359375 28.042969 42.128906 C 28.003906 41.957031 28 41.691406 28.03125 41.257812 C 28.105469 40.230469 28.089844 37.160156 28.007812 36.601562 C 27.96875 36.335938 27.9375 35.972656 27.9375 35.789062 L 27.9375 35.457031 L 27.375 35.492188 C 26.753906 35.53125 26.515625 35.617188 26.136719 35.929688 C 25.980469 36.054688 25.925781 36.140625 25.875 36.339844 C 25.746094 36.855469 25.40625 37.320312 25.097656 37.414062 C 25.035156 37.433594 24.9375 37.492188 24.882812 37.546875 C 24.777344 37.636719 24.777344 37.636719 24.699219 37.527344 C 24.511719 37.261719 24.382812 36.351562 24.382812 35.28125 C 24.382812 34.769531 24.46875 34.441406 24.628906 34.34375 C 24.65625 34.320312 24.917969 34.300781 25.195312 34.292969 C 25.472656 34.285156 25.867188 34.242188 26.0625 34.195312 C 26.539062 34.085938 27.457031 34.089844 28.585938 34.203125 C 29.628906 34.316406 31.492188 34.320312 31.617188 34.214844 C 31.691406 34.15625 31.84375 34.132812 32.734375 34.050781 C 33.082031 34.023438 33.105469 34.027344 33.253906 34.152344 C 33.351562 34.234375 33.40625 34.324219 33.40625 34.402344 C 33.40625 34.570312 33.582031 34.964844 33.824219 35.34375 C 34.246094 36.007812 34.367188 36.34375 34.28125 36.648438 C 34.234375 36.835938 33.988281 36.960938 33.675781 36.960938 C 33.457031 36.960938 33.421875 36.945312 33.210938 36.726562 C 33.085938 36.59375 32.871094 36.320312 32.730469 36.113281 C 32.59375 35.902344 32.449219 35.71875 32.40625 35.6875 C 32.246094 35.585938 31.578125 35.515625 30.742188 35.503906 L 29.878906 35.496094 L 29.886719 35.734375 C 29.886719 35.871094 29.886719 36.105469 29.890625 36.265625 C 29.898438 37.429688 29.871094 38.308594 29.816406 38.363281 C 29.699219 38.480469 29.769531 40.871094 29.929688 41.984375 C 30.023438 42.636719 30.058594 42.699219 30.316406 42.742188 C 30.625 42.789062 31.171875 43.078125 31.34375 43.285156 C 31.511719 43.492188 31.539062 43.761719 31.402344 43.886719 C 31.355469 43.929688 31.167969 43.996094 30.980469 44.035156 C 30.796875 44.074219 30.585938 44.121094 30.503906 44.136719 C 30.425781 44.15625 30.296875 44.199219 30.214844 44.230469 C 29.996094 44.328125 29.242188 44.367188 29.039062 44.285156 Z M 29.039062 44.285156 "/>
<path style=" stroke:none;fill-rule:nonzero;fill:rgb(59.215686%,50.588235%,32.156863%);fill-opacity:1;" d="M 22.546875 29.535156 C 22.472656 29.46875 21.457031 29.320312 20.804688 29.285156 C 20.429688 29.261719 20.097656 29.230469 20.070312 29.210938 C 19.953125 29.140625 19.089844 29.03125 18.550781 29.015625 C 18.234375 29.007812 17.742188 28.96875 17.449219 28.921875 C 17.160156 28.875 16.628906 28.824219 16.273438 28.804688 C 15.917969 28.785156 15.476562 28.738281 15.289062 28.695312 C 14.722656 28.566406 14.378906 28.511719 14.101562 28.511719 C 13.464844 28.511719 13.054688 28.355469 12.164062 27.757812 C 11.851562 27.550781 11.324219 27.222656 10.992188 27.023438 C 10.660156 26.832031 10.242188 26.578125 10.0625 26.460938 C 9.878906 26.351562 9.707031 26.257812 9.679688 26.257812 C 9.613281 26.257812 8.929688 25.761719 8.929688 25.714844 C 8.929688 25.691406 8.75 25.484375 8.535156 25.253906 C 8.3125 25.023438 8.074219 24.738281 7.992188 24.621094 C 7.914062 24.503906 7.769531 24.3125 7.671875 24.203125 C 7.273438 23.734375 7.066406 23.230469 7.003906 22.585938 C 6.96875 22.1875 6.921875 21.863281 6.769531 20.878906 C 6.714844 20.53125 6.726562 19.679688 6.789062 19.246094 C 6.824219 18.992188 7.078125 18.226562 7.296875 17.710938 C 7.515625 17.195312 7.824219 16.324219 7.824219 16.230469 C 7.824219 15.980469 8.449219 14.957031 9.078125 14.167969 C 9.257812 13.9375 9.488281 13.597656 9.585938 13.40625 C 9.804688 12.964844 9.789062 12.839844 9.402344 12.046875 C 9.066406 11.355469 8.929688 11.011719 8.929688 10.867188 C 8.929688 10.8125 8.914062 10.753906 8.894531 10.734375 C 8.875 10.714844 8.832031 10.617188 8.804688 10.523438 C 8.769531 10.425781 8.65625 10.09375 8.539062 9.792969 C 8.367188 9.316406 8.332031 9.175781 8.320312 8.769531 C 8.300781 8.351562 8.308594 8.273438 8.414062 8.042969 C 8.546875 7.753906 8.910156 7.203125 9.308594 6.675781 C 9.457031 6.484375 9.625 6.257812 9.675781 6.171875 C 9.867188 5.890625 10.40625 5.425781 10.683594 5.292969 C 10.945312 5.175781 10.988281 5.167969 11.515625 5.199219 C 11.824219 5.21875 12.148438 5.25 12.238281 5.285156 C 12.332031 5.3125 12.796875 5.347656 13.277344 5.363281 C 13.953125 5.378906 14.230469 5.371094 14.546875 5.308594 C 14.769531 5.265625 15.132812 5.210938 15.359375 5.183594 C 15.585938 5.15625 16.019531 5.09375 16.320312 5.039062 C 16.621094 4.988281 17.269531 4.886719 17.761719 4.824219 C 18.25 4.757812 18.710938 4.679688 18.789062 4.65625 C 18.863281 4.628906 19.136719 4.609375 19.390625 4.609375 C 19.988281 4.609375 20.785156 4.527344 21.355469 4.410156 C 21.601562 4.363281 21.941406 4.320312 22.105469 4.320312 C 22.273438 4.320312 22.46875 4.296875 22.539062 4.273438 C 22.800781 4.171875 23.796875 4.15625 24.457031 4.242188 C 24.800781 4.292969 25.285156 4.335938 25.535156 4.347656 C 25.992188 4.367188 26.933594 4.488281 27.070312 4.546875 C 27.109375 4.558594 27.46875 4.589844 27.863281 4.609375 C 28.539062 4.644531 29.585938 4.761719 29.855469 4.828125 C 29.921875 4.84375 30.183594 4.875 30.433594 4.902344 C 30.679688 4.921875 30.957031 4.949219 31.03125 4.964844 C 31.113281 4.976562 31.359375 5.027344 31.585938 5.0625 C 31.808594 5.101562 32.175781 5.160156 32.398438 5.183594 C 32.625 5.210938 32.886719 5.261719 32.976562 5.289062 C 33.222656 5.363281 34.125 5.828125 34.535156 6.085938 C 34.734375 6.210938 35.03125 6.398438 35.207031 6.503906 C 35.5 6.679688 35.796875 6.867188 36.265625 7.160156 C 36.457031 7.28125 36.769531 7.761719 36.769531 7.933594 C 36.769531 8.082031 36.558594 8.394531 36.101562 8.914062 C 35.742188 9.332031 35.617188 9.511719 35.539062 9.734375 C 35.488281 9.886719 35.457031 10.046875 35.476562 10.085938 C 35.496094 10.125 35.523438 10.210938 35.539062 10.28125 C 35.601562 10.566406 36.058594 11.136719 36.753906 11.792969 C 37.484375 12.484375 37.691406 12.75 37.992188 13.34375 C 38.203125 13.761719 38.515625 14.230469 38.914062 14.742188 C 39.453125 15.421875 39.675781 15.855469 39.964844 16.742188 C 40.128906 17.25 40.167969 17.324219 40.371094 17.519531 C 40.875 17.996094 41.027344 18.644531 41.09375 20.617188 C 41.160156 22.503906 41.144531 22.757812 40.925781 23.3125 C 40.828125 23.558594 40.753906 23.773438 40.753906 23.796875 C 40.753906 23.878906 40.484375 24.089844 40.253906 24.191406 C 40.085938 24.265625 39.816406 24.488281 39.269531 25.023438 C 38.804688 25.476562 38.367188 25.859375 38.113281 26.027344 C 37.515625 26.414062 36.773438 26.910156 36.550781 27.054688 C 36.152344 27.320312 35.691406 27.613281 35.480469 27.730469 C 35.363281 27.796875 35.125 27.945312 34.964844 28.054688 C 34.523438 28.363281 34.1875 28.472656 33.601562 28.515625 C 33.089844 28.554688 32.398438 28.671875 32.292969 28.738281 C 32.261719 28.757812 31.867188 28.785156 31.414062 28.804688 C 30.96875 28.824219 30.339844 28.875 30.023438 28.921875 C 29.707031 28.96875 29.257812 29.011719 29.015625 29.015625 C 28.78125 29.027344 28.390625 29.0625 28.152344 29.113281 C 27.917969 29.15625 27.625 29.207031 27.503906 29.230469 C 27.382812 29.257812 27.003906 29.273438 26.65625 29.273438 C 26.289062 29.28125 26.011719 29.300781 25.992188 29.328125 C 25.976562 29.355469 25.890625 29.375 25.808594 29.375 C 25.722656 29.375 25.453125 29.417969 25.203125 29.472656 C 24.832031 29.554688 24.566406 29.566406 23.664062 29.566406 C 23.0625 29.566406 22.558594 29.554688 22.546875 29.535156 Z M 12.097656 10.460938 C 12.402344 10.390625 12.546875 10.203125 12.503906 9.929688 C 12.484375 9.824219 12.503906 9.664062 12.550781 9.507812 C 12.628906 9.277344 12.628906 9.246094 12.550781 8.921875 C 12.488281 8.671875 12.421875 8.53125 12.308594 8.398438 C 11.9375 7.992188 11.246094 7.800781 10.910156 8.011719 C 10.800781 8.078125 10.742188 8.164062 10.703125 8.3125 C 10.675781 8.429688 10.59375 8.699219 10.527344 8.917969 C 10.460938 9.140625 10.390625 9.460938 10.378906 9.636719 C 10.359375 9.941406 10.367188 9.972656 10.488281 10.117188 C 10.714844 10.386719 11.019531 10.496094 11.554688 10.507812 C 11.71875 10.511719 11.960938 10.488281 12.097656 10.460938 Z M 23.4375 9.886719 C 23.859375 9.929688 25.050781 9.855469 25.140625 9.777344 C 25.179688 9.75 25.285156 9.730469 25.382812 9.734375 C 25.476562 9.742188 25.660156 9.726562 25.785156 9.695312 C 25.976562 9.648438 26.03125 9.652344 26.144531 9.71875 C 26.273438 9.796875 26.292969 9.792969 26.609375 9.648438 C 27.082031 9.441406 27.582031 9.34375 28.105469 9.371094 C 28.453125 9.390625 28.566406 9.375 28.679688 9.308594 C 28.84375 9.210938 29.207031 9.171875 30.171875 9.148438 C 30.679688 9.132812 30.894531 9.109375 31.003906 9.054688 C 31.085938 9.007812 31.222656 8.941406 31.308594 8.898438 C 31.492188 8.8125 31.488281 8.8125 31.847656 8.566406 C 32.144531 8.363281 32.15625 8.355469 32.375 8.25 C 32.542969 8.167969 32.832031 7.765625 32.832031 7.613281 C 32.832031 7.550781 32.777344 7.476562 32.703125 7.429688 C 32.625 7.386719 32.453125 7.253906 32.320312 7.136719 C 32.179688 7.019531 31.964844 6.882812 31.839844 6.835938 C 31.707031 6.792969 31.390625 6.664062 31.128906 6.546875 C 30.863281 6.4375 30.5 6.296875 30.3125 6.238281 C 30.128906 6.183594 29.671875 6.042969 29.304688 5.921875 C 28.933594 5.808594 28.507812 5.691406 28.347656 5.664062 C 28.195312 5.640625 27.992188 5.574219 27.90625 5.515625 C 27.804688 5.457031 27.644531 5.410156 27.488281 5.398438 C 26.855469 5.367188 26.132812 5.28125 25.652344 5.179688 C 25.152344 5.078125 25.066406 5.074219 23.351562 5.101562 C 21.125 5.140625 20.398438 5.242188 18 5.839844 C 17.101562 6.0625 16.953125 6.125 16.554688 6.425781 C 16.410156 6.53125 16.175781 6.6875 16.027344 6.769531 C 15.878906 6.84375 15.730469 6.945312 15.695312 6.984375 C 15.65625 7.027344 15.53125 7.117188 15.414062 7.191406 C 15.128906 7.355469 14.769531 7.621094 14.722656 7.707031 C 14.660156 7.820312 14.824219 8.015625 14.976562 8.015625 C 15.066406 8.015625 15.148438 8.058594 15.214844 8.144531 C 15.269531 8.210938 15.425781 8.347656 15.566406 8.4375 C 15.699219 8.523438 15.875 8.664062 15.945312 8.742188 C 16.027344 8.832031 16.125 8.878906 16.210938 8.878906 C 16.28125 8.878906 16.472656 8.945312 16.632812 9.023438 C 16.902344 9.160156 16.953125 9.167969 17.480469 9.167969 C 17.875 9.167969 18.0625 9.1875 18.105469 9.230469 C 18.140625 9.265625 18.28125 9.292969 18.433594 9.296875 C 18.582031 9.296875 18.761719 9.332031 18.84375 9.375 C 18.945312 9.425781 19.011719 9.433594 19.070312 9.402344 C 19.167969 9.34375 20.21875 9.375 20.566406 9.441406 C 20.902344 9.507812 21.417969 9.691406 21.511719 9.777344 C 21.574219 9.835938 21.6875 9.855469 21.921875 9.84375 C 22.105469 9.839844 22.316406 9.859375 22.390625 9.886719 C 22.472656 9.910156 22.71875 9.921875 22.945312 9.90625 C 23.167969 9.894531 23.390625 9.882812 23.4375 9.886719 Z M 23.4375 9.886719 "/>
<path style=" stroke:none;fill-rule:nonzero;fill:rgb(100%,90.196078%,50.196078%);fill-opacity:1;" d="M 22.554688 9.402344 C 21.851562 9.371094 21.652344 9.335938 21.199219 9.183594 C 20.765625 9.035156 20.535156 8.996094 19.929688 8.964844 C 19.527344 8.945312 18.929688 8.890625 18.605469 8.84375 C 18.28125 8.800781 17.761719 8.734375 17.453125 8.699219 C 17.046875 8.652344 16.796875 8.589844 16.539062 8.464844 C 15.988281 8.195312 15.648438 7.957031 15.609375 7.816406 C 15.566406 7.648438 15.679688 7.546875 16.570312 6.953125 C 17.292969 6.476562 17.324219 6.460938 18.136719 6.257812 C 19.203125 5.988281 20.574219 5.714844 21.289062 5.632812 C 22.121094 5.53125 25.425781 5.582031 26.359375 5.707031 C 27.3125 5.835938 27.714844 5.914062 27.796875 5.976562 C 27.832031 6.007812 27.957031 6.050781 28.070312 6.070312 C 28.527344 6.164062 30.445312 6.753906 30.65625 6.871094 C 30.707031 6.902344 30.949219 7.007812 31.195312 7.105469 C 31.800781 7.359375 31.878906 7.398438 32.019531 7.546875 L 32.140625 7.675781 L 32.019531 7.828125 C 31.878906 8.007812 31.269531 8.398438 30.90625 8.542969 C 30.753906 8.601562 30.261719 8.679688 29.699219 8.730469 C 29.175781 8.777344 28.667969 8.832031 28.570312 8.847656 C 28.472656 8.867188 28.074219 8.917969 27.683594 8.960938 C 27.296875 9.007812 26.777344 9.082031 26.535156 9.132812 C 25.890625 9.261719 24.082031 9.464844 23.707031 9.453125 C 23.527344 9.449219 23.007812 9.425781 22.554688 9.402344 Z M 22.554688 9.402344 "/>
</g>
</svg>
